<svg version="1.1" id="Layer_1" xmlns="http://www.w3.org/2000/svg" xmlns:xlink="http://www.w3.org/1999/xlink" x="0px" y="0px"
	 width="100%" viewBox="0 0 390 490" enable-background="new 0 0 390 490" xml:space="preserve">
<path fill="#E53B38" opacity="1.000000" stroke="none" 
	d="
M201.000000,491.000000 
	C197.307098,491.000000 193.614182,491.000000 189.760498,490.709900 
	C186.699051,488.621521 183.798401,486.823303 180.813019,484.700806 
	C175.790573,481.930695 170.852859,479.484833 165.948456,477.030975 
	C165.981750,477.022980 165.980209,477.091461 165.918549,476.751617 
	C162.699814,474.352570 159.661789,472.072052 156.354050,470.292999 
	C152.637894,468.294189 148.678223,466.748169 144.515808,464.866486 
	C128.397705,453.421692 112.588249,442.115601 96.659256,430.648865 
	C96.323662,430.328278 96.117615,430.156372 95.978546,429.991516 
	C96.035500,430.010529 95.999329,430.125092 95.888885,429.799133 
	C91.429276,425.730225 87.162788,421.884521 82.694389,418.289825 
	C80.610756,416.613586 78.135956,415.423584 75.532928,413.890747 
	C71.177521,409.718781 66.995644,405.791534 63.106956,401.592682 
	C56.332260,394.277649 48.999168,387.327454 43.206638,379.283539 
	C25.571829,354.794617 18.174454,326.810516 16.971682,296.966583 
	C16.621395,288.274994 16.420784,279.575897 15.955401,270.890778 
	C15.417668,260.855438 14.644308,250.832886 14.009925,240.802475 
	C13.631183,234.814056 13.456521,228.809998 12.955402,222.832642 
	C11.857947,209.742233 10.337684,196.681778 9.502260,183.576431 
	C8.673549,170.576355 8.690845,157.523575 7.933313,144.517410 
	C7.232151,132.479034 5.813638,120.483475 5.044845,108.447739 
	C4.170739,94.763290 3.710891,81.052650 2.922673,67.361938 
	C2.856250,66.208221 1.667394,65.119118 1.000000,64.000000 
	C1.000000,62.933331 1.000000,61.866661 1.356948,60.222549 
	C3.552876,55.312813 4.295892,51.042397 1.000000,47.000000 
	C1.000000,40.312355 1.000000,33.624710 1.397233,26.456211 
	C3.621431,25.318571 5.400131,24.425615 7.282695,24.040892 
	C30.577467,19.280340 53.794983,14.051404 77.222809,10.061074 
	C95.741211,6.906940 114.526772,5.328996 133.179199,2.938000 
	C134.513687,2.766937 135.729172,1.667676 137.000000,0.999999 
	C175.687561,1.000000 214.375122,1.000000 253.367981,1.416702 
	C258.617340,2.554901 263.551849,3.351619 268.507385,3.983375 
	C281.820618,5.680615 295.261475,6.665577 308.435760,9.101149 
	C332.785645,13.602781 356.974823,18.970705 381.249451,23.886194 
	C384.443848,24.533047 387.747131,24.641951 391.000000,25.000000 
	C391.000000,32.020947 391.000000,39.041897 390.644775,46.679497 
	C388.754700,51.629845 387.372040,55.955029 391.000000,60.000000 
	C391.000000,61.066669 391.000000,62.133339 390.577942,63.454979 
	C389.772614,64.555840 389.109344,65.382179 389.048676,66.250603 
	C388.314117,76.768150 387.598633,87.288055 387.017120,97.815018 
	C386.276611,111.220314 385.676178,124.633301 384.988586,138.041611 
	C384.715332,143.370041 384.427429,148.698898 384.047516,154.020493 
	C383.059784,167.856598 381.956818,181.684708 381.021790,195.524246 
	C380.543274,202.606628 380.331207,209.706894 379.989319,216.798630 
	C379.755493,221.648178 379.572052,226.501373 379.249023,231.345139 
	C378.538147,242.005463 377.735504,252.659637 377.006317,263.318787 
	C376.677948,268.118774 376.493683,272.928925 376.142059,277.726990 
	C375.465729,286.955627 374.845062,296.191284 373.958374,305.400635 
	C373.216278,313.108002 372.537659,320.858887 371.111969,328.455597 
	C367.643463,346.937103 359.866272,363.783356 348.858124,378.814423 
	C341.486633,388.879822 332.399048,397.688324 323.773529,407.110168 
	C323.013580,407.552643 322.559448,407.944244 322.213013,408.306274 
	C322.320679,408.276672 322.374298,408.493469 322.039551,408.434326 
	C321.137665,408.976013 320.570557,409.576904 319.906281,410.453247 
	C318.939362,411.484100 318.069641,412.239502 316.826660,413.010742 
	C309.635834,418.726105 302.818237,424.425629 295.982544,430.067871 
	C295.964447,430.010590 296.078339,429.972412 295.927185,430.106201 
	C295.540558,430.380615 295.355560,430.570435 294.888397,430.937317 
	C285.313812,438.063782 276.148071,445.166473 266.794495,452.012573 
	C262.755524,454.968781 258.328339,457.394562 253.734909,460.078674 
	C252.616776,460.761200 251.841248,461.426361 251.036087,462.056152 
	C251.006439,462.020813 251.088074,462.063721 250.746826,462.077271 
	C249.621323,462.484161 248.837051,462.877441 248.251480,463.263885 
	C248.450180,463.257050 248.472443,463.654053 248.105133,463.555481 
	C241.891846,466.729492 235.999893,469.924042 230.229858,473.325470 
	C228.639709,474.262848 227.413330,475.817261 226.018768,477.054626 
	C226.017517,477.020752 226.082520,477.040131 225.701752,476.999817 
	C217.845032,480.555420 210.335342,484.084625 202.935333,487.830505 
	C201.996094,488.305939 201.631058,489.915741 201.000000,491.000000 
M203.621521,464.073456 
	C230.629761,450.100311 256.337311,434.014282 279.935638,414.854736 
	C294.513428,403.019043 309.234924,391.008881 321.894196,377.240295 
	C343.265137,353.996582 351.469391,325.364441 353.196014,293.951721 
	C357.683777,212.305069 363.172302,130.712875 368.488037,49.113712 
	C368.819031,44.032661 367.472076,42.378773 362.647614,41.261303 
	C300.477081,26.860949 237.547348,20.412640 173.742752,22.401630 
	C124.285301,23.943378 75.501381,30.357109 27.363148,41.824409 
	C24.007721,42.623726 23.196198,43.924526 23.410740,47.183937 
	C25.663996,81.416512 27.801060,115.656822 29.925919,149.897751 
	C33.082291,200.760956 36.068485,251.635162 39.386707,302.487732 
	C41.539940,335.486572 54.413483,364.014221 78.512589,386.542236 
	C111.642723,417.512543 148.454697,443.531708 188.824661,464.432648 
	C193.939026,467.080566 198.243469,468.038879 203.621521,464.073456 
z"/>
<path fill="#000000" opacity="1.000000" stroke="none" 
	d="
M324.079346,407.059265 
	C332.399048,397.688324 341.486633,388.879822 348.858124,378.814423 
	C359.866272,363.783356 367.643463,346.937103 371.111969,328.455597 
	C372.537659,320.858887 373.216278,313.108002 373.958374,305.400635 
	C374.845062,296.191284 375.465729,286.955627 376.142059,277.726990 
	C376.493683,272.928925 376.677948,268.118774 377.006317,263.318787 
	C377.735504,252.659637 378.538147,242.005463 379.249023,231.345139 
	C379.572052,226.501373 379.755493,221.648178 379.989319,216.798630 
	C380.331207,209.706894 380.543274,202.606628 381.021790,195.524246 
	C381.956818,181.684708 383.059784,167.856598 384.047516,154.020493 
	C384.427429,148.698898 384.715332,143.370041 384.988586,138.041611 
	C385.676178,124.633301 386.276611,111.220314 387.017120,97.815018 
	C387.598633,87.288055 388.314117,76.768150 389.048676,66.250603 
	C389.109344,65.382179 389.772614,64.555840 390.577942,63.854973 
	C391.000000,206.232025 391.000000,348.464050 391.000000,491.000000 
	C328.646088,491.000000 266.291718,491.000000 203.130646,490.739899 
	C206.267380,488.314056 210.232773,486.187164 214.148102,483.971802 
	C218.151794,481.706390 222.106415,479.354279 226.082520,477.040131 
	C226.082520,477.040131 226.017517,477.020752 226.390381,477.012573 
	C233.999649,472.554291 241.236053,468.104187 248.472443,463.654053 
	C248.472443,463.654053 248.450180,463.257050 248.611679,463.366699 
	C249.544815,463.005463 250.316452,462.534607 251.088074,462.063721 
	C251.088074,462.063721 251.006439,462.020813 251.351303,461.992249 
	C252.489944,461.329529 253.283722,460.695404 254.077499,460.061279 
	C258.328339,457.394562 262.755524,454.968781 266.794495,452.012573 
	C276.148071,445.166473 285.313812,438.063782 295.109802,430.909851 
	C295.910828,430.551544 296.048950,430.290833 296.078339,429.972412 
	C296.078339,429.972412 295.964447,430.010590 296.354614,430.013123 
	C297.390869,429.930267 298.248596,430.082611 298.651245,429.723999 
	C304.868988,424.186737 311.027588,418.583130 317.199921,412.994873 
	C318.069641,412.239502 318.939362,411.484100 320.215179,410.356445 
	C321.205597,409.487274 321.789948,408.990387 322.374298,408.493469 
	C322.374298,408.493469 322.320679,408.276672 322.545807,408.407593 
	C323.207062,408.045410 323.643188,407.552338 324.079346,407.059265 
z"/>
<path fill="#000000" opacity="1.000000" stroke="none" 
	d="
M96.778793,430.809540 
	C112.588249,442.115601 128.397705,453.421692 144.688721,465.184387 
	C152.106918,469.457825 159.043564,473.274658 165.980209,477.091461 
	C165.980209,477.091461 165.981750,477.022980 166.081573,477.363342 
	C171.086853,480.144135 175.992294,482.584595 180.897736,485.025085 
	C183.798401,486.823303 186.699051,488.621521 189.299850,490.709900 
	C126.377937,491.000000 63.755871,491.000000 1.000000,491.000000 
	C1.000000,348.979126 1.000000,206.958221 1.000000,64.468658 
	C1.667394,65.119118 2.856250,66.208221 2.922673,67.361938 
	C3.710891,81.052650 4.170739,94.763290 5.044845,108.447739 
	C5.813638,120.483475 7.232151,132.479034 7.933313,144.517410 
	C8.690845,157.523575 8.673549,170.576355 9.502260,183.576431 
	C10.337684,196.681778 11.857947,209.742233 12.955402,222.832642 
	C13.456521,228.809998 13.631183,234.814056 14.009925,240.802475 
	C14.644308,250.832886 15.417668,260.855438 15.955401,270.890778 
	C16.420784,279.575897 16.621395,288.274994 16.971682,296.966583 
	C18.174454,326.810516 25.571829,354.794617 43.206638,379.283539 
	C48.999168,387.327454 56.332260,394.277649 63.106956,401.592682 
	C66.995644,405.791534 71.177521,409.718781 75.691406,414.195190 
	C80.029312,418.189789 83.753761,421.941467 87.833359,425.256012 
	C90.267342,427.233521 93.258583,428.525146 95.999329,430.125092 
	C95.999329,430.125092 96.035500,430.010529 96.041275,430.209167 
	C96.185570,430.734070 96.429482,430.867981 96.778793,430.809540 
z"/>
<path fill="#000000" opacity="1.000000" stroke="none" 
	d="
M391.000000,24.531307 
	C387.747131,24.641951 384.443848,24.533047 381.249451,23.886194 
	C356.974823,18.970705 332.785645,13.602781 308.435760,9.101149 
	C295.261475,6.665577 281.820618,5.680615 268.507385,3.983375 
	C263.551849,3.351619 258.617340,2.554901 253.836639,1.416702 
	C299.666718,1.000000 345.333405,1.000000 391.000000,1.000000 
	C391.000000,8.771069 391.000000,16.416843 391.000000,24.531307 
z"/>
<path fill="#000000" opacity="1.000000" stroke="none" 
	d="
M136.531342,0.999999 
	C135.729172,1.667676 134.513687,2.766937 133.179199,2.938000 
	C114.526772,5.328996 95.741211,6.906940 77.222809,10.061074 
	C53.794983,14.051404 30.577467,19.280340 7.282695,24.040892 
	C5.400131,24.425615 3.621431,25.318571 1.397233,25.987679 
	C1.000000,17.689371 1.000000,9.378742 1.000000,1.000000 
	C46.020874,1.000000 91.041779,1.000000 136.531342,0.999999 
z"/>
<path fill="#EC6E6B" opacity="1.000000" stroke="none" 
	d="
M225.701752,476.999817 
	C222.106415,479.354279 218.151794,481.706390 214.148102,483.971802 
	C210.232773,486.187164 206.267380,488.314056 202.661987,490.739899 
	C202.555557,491.000000 202.111099,491.000000 201.333328,491.000000 
	C201.631058,489.915741 201.996094,488.305939 202.935333,487.830505 
	C210.335342,484.084625 217.845032,480.555420 225.701752,476.999817 
z"/>
<path fill="#ED7A77" opacity="1.000000" stroke="none" 
	d="
M391.000000,59.536816 
	C387.372040,55.955029 388.754700,51.629845 390.644775,47.148075 
	C391.000000,51.024544 391.000000,55.049088 391.000000,59.536816 
z"/>
<path fill="#ED7A77" opacity="1.000000" stroke="none" 
	d="
M1.000000,47.463184 
	C4.295892,51.042397 3.552876,55.312813 1.356948,59.822552 
	C1.000000,55.975456 1.000000,51.950912 1.000000,47.463184 
z"/>
<path fill="#FBF9F9" opacity="1.000000" stroke="none" 
	d="
M203.287079,464.232880 
	C198.243469,468.038879 193.939026,467.080566 188.824661,464.432648 
	C148.454697,443.531708 111.642723,417.512543 78.512589,386.542236 
	C54.413483,364.014221 41.539940,335.486572 39.386707,302.487732 
	C36.068485,251.635162 33.082291,200.760956 29.925919,149.897751 
	C27.801060,115.656822 25.663996,81.416512 23.410740,47.183937 
	C23.196198,43.924526 24.007721,42.623726 27.363148,41.824409 
	C75.501381,30.357109 124.285301,23.943378 173.742752,22.401630 
	C237.547348,20.412640 300.477081,26.860949 362.647614,41.261303 
	C367.472076,42.378773 368.819031,44.032661 368.488037,49.113712 
	C363.172302,130.712875 357.683777,212.305069 353.196014,293.951721 
	C351.469391,325.364441 343.265137,353.996582 321.894196,377.240295 
	C309.234924,391.008881 294.513428,403.019043 279.935638,414.854736 
	C256.337311,434.014282 230.629761,450.100311 203.287079,464.232880 
M322.074646,354.526489 
	C329.592438,342.363556 335.170868,329.342743 337.069885,315.164856 
	C338.723328,302.820190 339.392914,290.331360 340.190491,277.886536 
	C344.864746,204.952515 349.408051,132.010025 354.165955,59.081512 
	C354.448395,54.752827 353.424194,53.077965 349.092865,52.137875 
	C286.068848,38.458904 222.374512,33.291462 157.980453,36.650238 
	C119.153770,38.675434 80.765594,43.954258 42.795513,52.282864 
	C40.215652,52.848743 37.430462,52.723122 37.730980,57.227242 
	C40.834152,103.737617 43.686947,150.264725 46.594521,196.788116 
	C48.743927,231.180344 50.944275,265.569611 52.986595,299.968262 
	C54.795795,330.440552 66.354958,356.566193 88.652145,377.335724 
	C119.754379,406.307037 154.247620,430.670776 191.818237,450.643188 
	C195.015228,452.342743 197.446106,452.095520 200.543976,450.440826 
	C229.140060,435.166718 256.023529,417.328979 281.031555,396.717407 
	C296.058380,384.332397 311.457397,372.243683 322.074646,354.526489 
z"/>
<path fill="#ED7673" opacity="1.000000" stroke="none" 
	d="
M316.826660,413.010742 
	C311.027588,418.583130 304.868988,424.186737 298.651245,429.723999 
	C298.248596,430.082611 297.390869,429.930267 296.372742,430.070374 
	C302.818237,424.425629 309.635834,418.726105 316.826660,413.010742 
z"/>
<path fill="#ED7673" opacity="1.000000" stroke="none" 
	d="
M95.888878,429.799133 
	C93.258583,428.525146 90.267342,427.233521 87.833359,425.256012 
	C83.753761,421.941467 80.029312,418.189789 75.996933,414.317627 
	C78.135956,415.423584 80.610756,416.613586 82.694389,418.289825 
	C87.162788,421.884521 91.429276,425.730225 95.888878,429.799133 
z"/>
<path fill="#EC6E6B" opacity="1.000000" stroke="none" 
	d="
M248.105133,463.555481 
	C241.236053,468.104187 233.999649,472.554291 226.391632,477.046478 
	C227.413330,475.817261 228.639709,474.262848 230.229858,473.325470 
	C235.999893,469.924042 241.891846,466.729492 248.105133,463.555481 
z"/>
<path fill="#EC6F6C" opacity="1.000000" stroke="none" 
	d="
M165.918549,476.751617 
	C159.043564,473.274658 152.106918,469.457825 144.997375,465.323120 
	C148.678223,466.748169 152.637894,468.294189 156.354050,470.292999 
	C159.661789,472.072052 162.699814,474.352570 165.918549,476.751617 
z"/>
<path fill="#EC6F6C" opacity="1.000000" stroke="none" 
	d="
M180.813019,484.700806 
	C175.992294,482.584595 171.086853,480.144135 166.048279,477.371338 
	C170.852859,479.484833 175.790573,481.930695 180.813019,484.700806 
z"/>
<path fill="#EC6E6B" opacity="1.000000" stroke="none" 
	d="
M253.734894,460.078674 
	C253.283722,460.695404 252.489944,461.329529 251.380951,462.027588 
	C251.841248,461.426361 252.616776,460.761200 253.734894,460.078674 
z"/>
<path fill="#ED7673" opacity="1.000000" stroke="none" 
	d="
M322.039551,408.434326 
	C321.789948,408.990387 321.205597,409.487274 320.312347,410.080994 
	C320.570557,409.576904 321.137665,408.976013 322.039551,408.434326 
z"/>
<path fill="#EC6E6B" opacity="1.000000" stroke="none" 
	d="
M250.746841,462.077301 
	C250.316452,462.534607 249.544815,463.005463 248.412979,463.373535 
	C248.837051,462.877441 249.621323,462.484161 250.746841,462.077301 
z"/>
<path fill="#ED7673" opacity="1.000000" stroke="none" 
	d="
M323.773529,407.110168 
	C323.643188,407.552338 323.207062,408.045410 322.438141,408.437195 
	C322.559448,407.944244 323.013580,407.552643 323.773529,407.110168 
z"/>
<path fill="#ED7673" opacity="1.000000" stroke="none" 
	d="
M96.659256,430.648865 
	C96.429482,430.867981 96.185570,430.734070 95.984322,430.190125 
	C96.117615,430.156372 96.323662,430.328278 96.659256,430.648865 
z"/>
<path fill="#ED7673" opacity="1.000000" stroke="none" 
	d="
M295.927185,430.106201 
	C296.048950,430.290833 295.910828,430.551544 295.442505,430.782013 
	C295.355560,430.570435 295.540558,430.380615 295.927185,430.106201 
z"/>
<path fill="#213363" opacity="1.000000" stroke="none" 
	d="
M321.884491,354.835205 
	C311.457397,372.243683 296.058380,384.332397 281.031555,396.717407 
	C256.023529,417.328979 229.140060,435.166718 200.543976,450.440826 
	C197.446106,452.095520 195.015228,452.342743 191.818237,450.643188 
	C154.247620,430.670776 119.754379,406.307037 88.652145,377.335724 
	C66.354958,356.566193 54.795795,330.440552 52.986595,299.968262 
	C50.944275,265.569611 48.743927,231.180344 46.594521,196.788116 
	C43.686947,150.264725 40.834152,103.737617 37.730980,57.227242 
	C37.430462,52.723122 40.215652,52.848743 42.795513,52.282864 
	C80.765594,43.954258 119.153770,38.675434 157.980453,36.650238 
	C222.374512,33.291462 286.068848,38.458904 349.092865,52.137875 
	C353.424194,53.077965 354.448395,54.752827 354.165955,59.081512 
	C349.408051,132.010025 344.864746,204.952515 340.190491,277.886536 
	C339.392914,290.331360 338.723328,302.820190 337.069885,315.164856 
	C335.170868,329.342743 329.592438,342.363556 321.884491,354.835205 
M80.730537,103.181221 
	C71.432899,105.064430 62.162621,107.102463 52.823803,108.752617 
	C49.222126,109.389023 48.423428,110.810463 48.661503,114.413757 
	C51.306393,154.443771 53.732372,194.488220 56.244064,234.527115 
	C56.793373,243.283630 57.447735,252.033554 58.062252,260.909851 
	C83.596230,260.909851 108.643272,260.909851 134.218170,260.909851 
	C134.218170,231.196945 134.218170,201.799210 134.218170,171.847961 
	C154.964752,171.847961 175.190369,171.847961 195.537354,171.847961 
	C195.537354,145.384750 195.537354,119.483147 195.537354,93.053314 
	C157.056854,93.091721 119.177551,96.356697 80.730537,103.181221 
M244.524353,415.053467 
	C261.634216,401.548279 279.108307,388.473907 295.744476,374.408447 
	C310.370392,362.042633 320.218903,346.123108 326.486023,327.911957 
	C332.008972,311.863220 331.658905,295.160583 332.916290,278.619995 
	C333.338745,273.062500 333.559326,267.489685 333.867279,262.011536 
	C308.202637,262.011536 283.168243,262.011536 257.788635,262.011536 
	C258.929901,280.424683 254.357391,296.712067 242.141785,310.340424 
	C229.964859,323.925598 214.431549,330.500305 196.250076,331.110504 
	C196.250076,368.870667 196.250076,406.236969 196.250076,445.284393 
	C212.761444,434.961761 228.350296,425.215881 244.524353,415.053467 
M141.081390,244.499985 
	C141.082016,252.333084 140.968796,260.168121 141.103439,267.998932 
	C141.622635,298.195190 163.643753,322.172882 192.272034,323.812195 
	C224.783951,325.673920 250.656723,300.937073 250.879303,267.466644 
	C251.066605,239.302124 250.922668,211.135376 250.902664,182.969635 
	C250.901764,181.700333 250.676422,180.431198 250.564056,179.250763 
	C213.942703,179.250763 177.700073,179.250763 141.081390,179.250763 
	C141.081390,200.896057 141.081390,222.198013 141.081390,244.499985 
M56.373089,56.916920 
	C52.697418,57.700565 49.021744,58.484215 45.179382,59.303398 
	C46.121754,73.885452 47.028755,87.920212 47.965752,102.419121 
	C57.657108,100.508514 66.748772,98.722092 75.837708,96.921875 
	C80.713783,95.956078 87.551826,96.536758 89.926315,93.562729 
	C92.493729,90.347061 91.021645,83.803398 91.078575,78.708717 
	C91.180313,69.604843 91.107224,60.499016 91.107224,50.507694 
	C79.314575,52.673851 68.257317,54.704929 56.373089,56.916920 
M346.258087,67.026276 
	C346.429596,64.569832 346.601074,62.113392 346.820129,58.976097 
	C331.522705,56.150402 316.506958,53.376732 301.151062,50.540230 
	C301.151062,65.753990 301.151062,79.819946 301.151062,94.066879 
	C315.446320,96.829147 329.523468,99.549271 344.086975,102.363373 
	C344.814758,90.441315 345.501648,79.189270 346.258087,67.026276 
M286.677612,81.449760 
	C286.677612,73.641304 286.677551,65.832848 286.677673,58.024395 
	C286.677826,48.869606 286.694672,48.733421 277.432953,47.591125 
	C269.114227,46.565128 260.753082,45.882862 252.166656,45.024578 
	C252.166656,59.833191 252.166656,73.884377 252.166656,88.249001 
	C263.644714,89.487007 274.910248,90.702087 286.677612,91.971291 
	C286.677612,88.350792 286.677612,85.388840 286.677612,81.449760 
M138.380615,45.216713 
	C128.634552,46.208195 118.896042,47.286041 109.137871,48.139076 
	C106.169640,48.398556 105.229774,49.589993 105.266647,52.523666 
	C105.406570,63.656223 105.322510,74.791595 105.322212,85.925911 
	C105.322166,87.835831 105.322205,89.745743 105.322205,92.018791 
	C117.308426,90.701172 128.472946,89.473877 140.077698,88.198189 
	C140.077698,74.800774 140.096634,61.702820 140.042831,48.605167 
	C140.038391,47.522781 139.540939,46.442425 138.380615,45.216713 
M237.820419,45.958706 
	C236.195511,45.254929 234.581757,43.973724 232.943848,43.942059 
	C223.084671,43.751442 213.219925,43.847370 203.415268,43.847370 
	C203.415268,57.815201 203.415268,71.702354 203.415268,86.361328 
	C214.903961,86.361328 226.088974,86.361328 237.855331,86.361328 
	C237.855331,73.377151 237.855331,60.129852 237.820419,45.958706 
M154.137466,77.452606 
	C154.137466,80.564026 154.137466,83.675438 154.137466,86.270859 
	C166.047882,86.270859 177.259293,86.270859 188.630096,86.270859 
	C188.630096,71.463058 188.630096,57.549606 188.630096,43.837425 
	C177.139862,43.837425 165.932251,43.837425 154.137466,43.837425 
	C154.137466,55.229328 154.137466,65.848129 154.137466,77.452606 
M82.458755,299.409729 
	C82.879646,301.535614 83.744171,303.687805 83.620003,305.781372 
	C83.421616,309.126129 82.566452,312.431885 81.988960,315.754150 
	C82.201393,316.170593 82.413834,316.587036 82.626266,317.003510 
	C91.292259,308.744843 99.973671,309.126862 109.307899,317.487366 
	C108.448891,311.054749 106.281296,305.849976 107.620316,301.806396 
	C109.011139,297.606384 113.793793,294.529541 118.204025,289.760162 
	C105.925201,291.010895 98.563530,286.432465 96.036728,274.788757 
	C93.867355,278.011108 92.245087,280.522858 91.255722,283.263092 
	C89.821472,287.235565 87.212265,288.922791 83.091553,289.091309 
	C80.098923,289.213745 77.128807,289.886597 73.138763,290.458893 
	C76.662636,293.845245 79.284775,296.365051 82.458755,299.409729 
M295.284241,157.788177 
	C297.702057,156.002777 299.973541,156.036255 302.594421,157.702316 
	C305.461487,159.524872 308.645447,160.848953 311.761353,162.425735 
	C311.967621,161.812637 320.262665,137.158478 320.373199,136.829987 
	C317.061249,136.298187 313.811768,135.453842 310.536133,135.335678 
	C306.809570,135.201294 304.936127,133.414917 303.624146,130.143478 
	C302.450439,127.216873 300.724548,124.511719 299.242340,121.708847 
	C298.798187,121.543320 298.354065,121.377792 297.909912,121.212257 
	C296.088867,133.407043 288.068268,137.129990 276.713287,137.130203 
	C287.264618,143.254333 289.188629,151.757401 284.507141,163.292221 
	C289.076202,160.952118 291.846832,159.533112 295.284241,157.788177 
M233.018509,122.794846 
	C228.140198,123.878738 223.261902,124.962624 216.683426,126.424263 
	C228.140106,132.233871 229.821930,140.806747 225.350769,152.234116 
	C229.749359,149.989639 232.547333,148.889130 234.975739,147.243332 
	C238.316147,144.979462 241.234375,145.107162 244.555878,147.293564 
	C247.053299,148.937531 249.931778,150.002579 253.296814,151.645767 
	C253.062759,149.533966 253.174133,148.307526 252.773483,147.280914 
	C249.852448,139.796036 251.699188,133.903870 258.349091,129.390167 
	C259.454834,128.639648 260.194550,127.349884 262.360382,124.870163 
	C249.536713,126.742561 242.863266,121.154472 240.117371,109.048050 
	C237.336197,114.491432 235.385880,118.308617 233.018509,122.794846 
M174.682373,389.145752 
	C175.332352,387.114197 175.477798,384.662811 176.742538,383.142761 
	C179.030579,380.392792 181.986572,378.198547 185.587204,374.935272 
	C181.054977,374.176727 177.996948,373.218903 174.953400,373.262848 
	C170.672150,373.324646 168.752136,371.079590 167.273743,367.568512 
	C166.114105,364.814453 164.505051,362.249603 163.095657,359.600708 
	C162.664001,359.451843 162.232330,359.302979 161.800674,359.154114 
	C159.841888,370.924316 152.332581,375.109650 140.831314,374.863434 
	C150.483246,381.402924 153.816986,389.445251 149.182266,400.719238 
	C158.466812,393.234894 167.163422,393.132843 175.899033,401.118774 
	C176.046570,400.640869 176.194092,400.162964 176.341614,399.685059 
	C175.838669,396.439148 175.335739,393.193207 174.682373,389.145752 
M125.467224,328.015778 
	C124.520401,326.214172 123.573578,324.412567 121.727585,320.900055 
	C119.195557,333.520538 112.072266,338.493408 100.485611,337.940887 
	C102.927628,341.059723 105.103973,343.334229 107.549149,345.269043 
	C110.170715,347.343384 111.275917,349.536316 110.320648,352.993774 
	C109.436630,356.193390 109.288307,359.596222 108.815994,362.909576 
	C109.045029,363.320374 109.274063,363.731171 109.503098,364.141968 
	C118.265495,355.956543 126.955803,356.448547 136.190201,365.033325 
	C135.528656,360.575012 135.494644,357.871155 134.685715,355.423431 
	C133.131042,350.719147 133.974442,347.102417 138.152710,344.218811 
	C140.378143,342.682892 142.340515,340.765778 145.085327,338.464203 
	C137.147629,335.654114 127.963356,338.768829 125.467224,328.015778 
M289.838562,224.291473 
	C297.655731,217.184448 304.690582,222.121552 312.487244,226.717438 
	C311.727478,220.982910 309.576447,215.799759 310.913605,211.775665 
	C312.289856,207.633789 317.067200,204.622055 320.356323,201.115799 
	C320.421326,200.654465 320.486328,200.193115 320.551331,199.731781 
	C308.449524,201.797028 302.360687,195.413895 298.755341,184.708496 
	C295.968933,196.482407 288.584808,201.057083 276.740509,200.831573 
	C287.677734,206.924881 288.998779,215.611755 284.591827,226.783691 
	C287.169464,225.586121 288.183441,225.115021 289.838562,224.291473 
z"/>
<path fill="#FDFDFD" opacity="1.000000" stroke="none" 
	d="
M81.156441,103.109222 
	C119.177551,96.356697 157.056854,93.091721 195.537354,93.053314 
	C195.537354,119.483147 195.537354,145.384750 195.537354,171.847961 
	C175.190369,171.847961 154.964752,171.847961 134.218170,171.847961 
	C134.218170,201.799210 134.218170,231.196945 134.218170,260.909851 
	C108.643272,260.909851 83.596230,260.909851 58.062252,260.909851 
	C57.447735,252.033554 56.793373,243.283630 56.244064,234.527115 
	C53.732372,194.488220 51.306393,154.443771 48.661503,114.413757 
	C48.423428,110.810463 49.222126,109.389023 52.823803,108.752617 
	C62.162621,107.102463 71.432899,105.064430 81.156441,103.109222 
M111.591873,157.513290 
	C111.979179,157.909592 112.366486,158.305908 112.753784,158.702225 
	C113.019081,158.122574 113.284386,157.542908 113.769539,156.060822 
	C113.769539,151.792938 113.769539,147.525040 113.769539,143.193146 
	C100.047974,143.193146 86.846321,143.193146 73.644676,143.193146 
	C73.619225,143.479294 73.593773,143.765442 73.568321,144.051575 
	C75.242233,144.357468 76.916138,144.663345 78.868301,145.020081 
	C78.868301,161.960403 78.868301,178.858444 78.050766,195.815369 
	C76.442627,195.965103 74.834488,196.114838 73.226357,196.264557 
	C73.246185,196.765533 73.266014,197.266495 73.285851,197.767456 
	C75.206200,197.767456 77.126556,197.767456 79.839874,197.880539 
	C82.547577,197.843613 85.255287,197.806686 88.754997,197.963257 
	C93.147873,197.963257 97.540741,197.963257 101.933617,197.963257 
	C101.954254,197.514938 101.974899,197.066605 101.995537,196.618286 
	C101.635841,196.421692 101.278503,196.058975 100.916100,196.053833 
	C96.617096,195.992920 92.317329,195.985352 87.707550,195.075104 
	C87.707550,187.338943 87.707550,179.602798 87.707550,171.966827 
	C97.387619,170.482742 98.860153,171.306992 104.410881,180.527359 
	C104.410881,174.376907 104.410881,168.226471 104.666649,161.557281 
	C104.245003,161.183334 103.823364,160.809372 103.401718,160.435425 
	C103.191948,160.988892 102.982178,161.542374 102.396156,162.778030 
	C99.892174,169.227646 96.578407,170.577148 87.888039,168.652298 
	C87.888039,160.770691 87.888039,152.880798 87.888039,145.043793 
	C103.761833,142.833099 108.024361,145.001587 111.591873,157.513290 
M104.825340,197.896011 
	C107.912270,197.896011 110.999199,197.896011 113.844505,197.896011 
	C113.844505,192.190933 113.844505,187.168701 113.844505,182.146484 
	C111.193199,188.612778 109.995659,195.727890 101.316216,197.234482 
	C102.172386,197.453934 103.028557,197.673386 104.825340,197.896011 
z"/>
<path fill="#FDFDFE" opacity="1.000000" stroke="none" 
	d="
M244.231750,415.261719 
	C228.350296,425.215881 212.761444,434.961761 196.250076,445.284393 
	C196.250076,406.236969 196.250076,368.870667 196.250076,331.110504 
	C214.431549,330.500305 229.964859,323.925598 242.141785,310.340424 
	C254.357391,296.712067 258.929901,280.424683 257.788635,262.011536 
	C283.168243,262.011536 308.202637,262.011536 333.867279,262.011536 
	C333.559326,267.489685 333.338745,273.062500 332.916290,278.619995 
	C331.658905,295.160583 332.008972,311.863220 326.486023,327.911957 
	C320.218903,346.123108 310.370392,362.042633 295.744476,374.408447 
	C279.108307,388.473907 261.634216,401.548279 244.231750,415.261719 
M296.550079,350.806763 
	C297.132233,349.986572 297.714386,349.166351 298.877869,347.953339 
	C299.647919,345.684052 300.417999,343.414764 301.188049,341.145477 
	C300.552734,340.938538 299.917389,340.731628 299.282043,340.524689 
	C298.462097,342.651520 297.642151,344.778320 296.440186,347.184082 
	C296.222290,347.422943 296.077301,347.699951 295.493805,348.181061 
	C294.920959,348.844238 294.348083,349.507416 293.283112,350.370972 
	C293.168152,350.505646 293.053162,350.640350 292.304749,350.821106 
	C291.783051,351.158356 291.261322,351.495636 289.884338,351.891815 
	C281.775055,354.348419 273.994019,350.658173 270.056641,342.035675 
	C265.534882,332.133453 265.961578,321.918182 269.442627,311.849945 
	C271.927338,304.663544 277.516937,300.843872 284.061371,301.126129 
	C290.724731,301.413513 295.101715,305.512207 297.250977,313.394135 
	C297.668762,314.926361 298.284485,316.404602 298.808899,317.907745 
	C299.163757,317.788055 299.518585,317.668335 299.873444,317.548615 
	C299.873444,311.545685 299.873444,305.542725 299.873444,297.902100 
	C297.159149,302.970154 294.302094,301.554535 291.276398,300.514313 
	C280.967316,296.970184 270.704803,299.997955 263.976440,308.507507 
	C258.729218,315.143768 257.244080,322.869720 257.910339,331.097687 
	C259.724640,353.502777 280.555878,361.598358 294.929321,352.385925 
	C295.294586,351.963440 295.659821,351.540924 296.550079,350.806763 
z"/>
<path fill="#FDFDFD" opacity="1.000000" stroke="none" 
	d="
M141.081390,243.999969 
	C141.081390,222.198013 141.081390,200.896057 141.081390,179.250763 
	C177.700073,179.250763 213.942703,179.250763 250.564056,179.250763 
	C250.676422,180.431198 250.901764,181.700333 250.902664,182.969635 
	C250.922668,211.135376 251.066605,239.302124 250.879303,267.466644 
	C250.656723,300.937073 224.783951,325.673920 192.272034,323.812195 
	C163.643753,322.172882 141.622635,298.195190 141.103439,267.998932 
	C140.968796,260.168121 141.082016,252.333084 141.081390,243.999969 
M189.348526,266.849976 
	C181.767426,263.957397 179.835587,256.788696 177.622787,249.832626 
	C177.250046,250.017899 176.877319,250.203171 176.504578,250.388428 
	C176.504578,256.486755 176.504578,262.585083 176.504578,267.411072 
	C179.668259,267.605865 182.252441,267.591766 184.774933,267.979309 
	C186.548233,268.251709 188.237579,269.070709 190.584579,269.973602 
	C193.715195,269.934448 196.845825,269.895294 200.714096,269.829712 
	C209.344452,267.384796 213.909271,262.481750 214.249390,255.291565 
	C214.610611,247.654907 211.606766,243.697296 202.578522,239.997482 
	C199.041824,238.548126 195.416077,237.301376 191.940811,235.720688 
	C187.816528,233.844788 184.496750,231.046799 184.226868,226.121353 
	C183.955704,221.172318 186.812531,218.088058 191.901062,216.022232 
	C204.773590,213.576920 208.616074,222.508743 211.352707,232.833832 
	C211.727707,232.556198 212.102707,232.278549 212.477707,232.000900 
	C212.477707,225.953812 212.477707,219.906708 212.477707,214.806351 
	C209.432755,214.806351 206.647568,214.856567 203.864853,214.795227 
	C199.013000,214.688278 194.162659,214.512604 188.593262,214.396103 
	C180.936737,217.206100 177.539993,221.500458 177.143341,228.324844 
	C176.704910,235.868790 181.097946,239.913757 187.226898,242.705338 
	C191.590286,244.692703 196.144653,246.269058 200.467560,248.334824 
	C204.839432,250.423965 207.469879,253.815033 207.000443,259.016174 
	C206.548477,264.023651 203.541763,266.673584 198.147720,267.783569 
	C195.414413,267.588501 192.681091,267.393433 189.348526,266.849976 
z"/>
<path fill="#FAFBFC" opacity="1.000000" stroke="none" 
	d="
M56.786572,56.826466 
	C68.257317,54.704929 79.314575,52.673851 91.107224,50.507694 
	C91.107224,60.499016 91.180313,69.604843 91.078575,78.708717 
	C91.021645,83.803398 92.493729,90.347061 89.926315,93.562729 
	C87.551826,96.536758 80.713783,95.956078 75.837708,96.921875 
	C66.748772,98.722092 57.657108,100.508514 47.965752,102.419121 
	C47.028755,87.920212 46.121754,73.885452 45.179382,59.303398 
	C49.021744,58.484215 52.697418,57.700565 56.786572,56.826466 
z"/>
<path fill="#FBFBFC" opacity="1.000000" stroke="none" 
	d="
M346.223328,67.481750 
	C345.501648,79.189270 344.814758,90.441315 344.086975,102.363373 
	C329.523468,99.549271 315.446320,96.829147 301.151062,94.066879 
	C301.151062,79.819946 301.151062,65.753990 301.151062,50.540230 
	C316.506958,53.376732 331.522705,56.150402 346.820129,58.976097 
	C346.601074,62.113392 346.429596,64.569832 346.223328,67.481750 
z"/>
<path fill="#F9F9FB" opacity="1.000000" stroke="none" 
	d="
M286.677612,81.938324 
	C286.677612,85.388840 286.677612,88.350792 286.677612,91.971291 
	C274.910248,90.702087 263.644714,89.487007 252.166656,88.249001 
	C252.166656,73.884377 252.166656,59.833191 252.166656,45.024578 
	C260.753082,45.882862 269.114227,46.565128 277.432953,47.591125 
	C286.694672,48.733421 286.677826,48.869606 286.677673,58.024395 
	C286.677551,65.832848 286.677612,73.641304 286.677612,81.938324 
z"/>
<path fill="#F9F9FB" opacity="1.000000" stroke="none" 
	d="
M138.826599,45.288918 
	C139.540939,46.442425 140.038391,47.522781 140.042831,48.605167 
	C140.096634,61.702820 140.077698,74.800774 140.077698,88.198189 
	C128.472946,89.473877 117.308426,90.701172 105.322205,92.018791 
	C105.322205,89.745743 105.322166,87.835831 105.322212,85.925911 
	C105.322510,74.791595 105.406570,63.656223 105.266647,52.523666 
	C105.229774,49.589993 106.169640,48.398556 109.137871,48.139076 
	C118.896042,47.286041 128.634552,46.208195 138.826599,45.288918 
z"/>
<path fill="#F9F9FB" opacity="1.000000" stroke="none" 
	d="
M237.837875,46.420631 
	C237.855331,60.129852 237.855331,73.377151 237.855331,86.361328 
	C226.088974,86.361328 214.903961,86.361328 203.415268,86.361328 
	C203.415268,71.702354 203.415268,57.815201 203.415268,43.847370 
	C213.219925,43.847370 223.084671,43.751442 232.943848,43.942059 
	C234.581757,43.973724 236.195511,45.254929 237.837875,46.420631 
z"/>
<path fill="#F9F9FB" opacity="1.000000" stroke="none" 
	d="
M154.137466,76.959770 
	C154.137466,65.848129 154.137466,55.229328 154.137466,43.837425 
	C165.932251,43.837425 177.139862,43.837425 188.630096,43.837425 
	C188.630096,57.549606 188.630096,71.463058 188.630096,86.270859 
	C177.259293,86.270859 166.047882,86.270859 154.137466,86.270859 
	C154.137466,83.675438 154.137466,80.564026 154.137466,76.959770 
z"/>
<path fill="#F6F7F9" opacity="1.000000" stroke="none" 
	d="
M82.182831,299.147308 
	C79.284775,296.365051 76.662636,293.845245 73.138763,290.458893 
	C77.128807,289.886597 80.098923,289.213745 83.091553,289.091309 
	C87.212265,288.922791 89.821472,287.235565 91.255722,283.263092 
	C92.245087,280.522858 93.867355,278.011108 96.036728,274.788757 
	C98.563530,286.432465 105.925201,291.010895 118.204025,289.760162 
	C113.793793,294.529541 109.011139,297.606384 107.620316,301.806396 
	C106.281296,305.849976 108.448891,311.054749 109.307899,317.487366 
	C99.973671,309.126862 91.292259,308.744843 82.626266,317.003510 
	C82.413834,316.587036 82.201393,316.170593 81.988960,315.754150 
	C82.566452,312.431885 83.421616,309.126129 83.620003,305.781372 
	C83.744171,303.687805 82.879646,301.535614 82.182831,299.147308 
z"/>
<path fill="#F7F7F9" opacity="1.000000" stroke="none" 
	d="
M294.950867,157.951141 
	C291.846832,159.533112 289.076202,160.952118 284.507141,163.292221 
	C289.188629,151.757401 287.264618,143.254333 276.713287,137.130203 
	C288.068268,137.129990 296.088867,133.407043 297.909912,121.212257 
	C298.354065,121.377792 298.798187,121.543320 299.242340,121.708847 
	C300.724548,124.511719 302.450439,127.216873 303.624146,130.143478 
	C304.936127,133.414917 306.809570,135.201294 310.536133,135.335678 
	C313.811768,135.453842 317.061249,136.298187 320.373199,136.829987 
	C320.262665,137.158478 311.967621,161.812637 311.761353,162.425735 
	C308.645447,160.848953 305.461487,159.524872 302.594421,157.702316 
	C299.973541,156.036255 297.702057,156.002777 294.950867,157.951141 
z"/>
<path fill="#F7F7F9" opacity="1.000000" stroke="none" 
	d="
M233.227051,122.460327 
	C235.385880,118.308617 237.336197,114.491432 240.117371,109.048050 
	C242.863266,121.154472 249.536713,126.742561 262.360382,124.870163 
	C260.194550,127.349884 259.454834,128.639648 258.349091,129.390167 
	C251.699188,133.903870 249.852448,139.796036 252.773483,147.280914 
	C253.174133,148.307526 253.062759,149.533966 253.296814,151.645767 
	C249.931778,150.002579 247.053299,148.937531 244.555878,147.293564 
	C241.234375,145.107162 238.316147,144.979462 234.975739,147.243332 
	C232.547333,148.889130 229.749359,149.989639 225.350769,152.234116 
	C229.821930,140.806747 228.140106,132.233871 216.683426,126.424263 
	C223.261902,124.962624 228.140198,123.878738 233.227051,122.460327 
z"/>
<path fill="#F7F7F9" opacity="1.000000" stroke="none" 
	d="
M174.757584,389.546509 
	C175.335739,393.193207 175.838669,396.439148 176.341614,399.685059 
	C176.194092,400.162964 176.046570,400.640869 175.899033,401.118774 
	C167.163422,393.132843 158.466812,393.234894 149.182266,400.719238 
	C153.816986,389.445251 150.483246,381.402924 140.831314,374.863434 
	C152.332581,375.109650 159.841888,370.924316 161.800674,359.154114 
	C162.232330,359.302979 162.664001,359.451843 163.095657,359.600708 
	C164.505051,362.249603 166.114105,364.814453 167.273743,367.568512 
	C168.752136,371.079590 170.672150,373.324646 174.953400,373.262848 
	C177.996948,373.218903 181.054977,374.176727 185.587204,374.935272 
	C181.986572,378.198547 179.030579,380.392792 176.742538,383.142761 
	C175.477798,384.662811 175.332352,387.114197 174.757584,389.546509 
z"/>
<path fill="#F7F8F9" opacity="1.000000" stroke="none" 
	d="
M125.641937,328.348206 
	C127.963356,338.768829 137.147629,335.654114 145.085327,338.464203 
	C142.340515,340.765778 140.378143,342.682892 138.152710,344.218811 
	C133.974442,347.102417 133.131042,350.719147 134.685715,355.423431 
	C135.494644,357.871155 135.528656,360.575012 136.190201,365.033325 
	C126.955803,356.448547 118.265495,355.956543 109.503098,364.141968 
	C109.274063,363.731171 109.045029,363.320374 108.815994,362.909576 
	C109.288307,359.596222 109.436630,356.193390 110.320648,352.993774 
	C111.275917,349.536316 110.170715,347.343384 107.549149,345.269043 
	C105.103973,343.334229 102.927628,341.059723 100.485611,337.940887 
	C112.072266,338.493408 119.195557,333.520538 121.727585,320.900055 
	C123.573578,324.412567 124.520401,326.214172 125.641937,328.348206 
z"/>
<path fill="#F8F8FA" opacity="1.000000" stroke="none" 
	d="
M289.518005,224.467712 
	C288.183441,225.115021 287.169464,225.586121 284.591827,226.783691 
	C288.998779,215.611755 287.677734,206.924881 276.740509,200.831573 
	C288.584808,201.057083 295.968933,196.482407 298.755341,184.708496 
	C302.360687,195.413895 308.449524,201.797028 320.551331,199.731781 
	C320.486328,200.193115 320.421326,200.654465 320.356323,201.115799 
	C317.067200,204.622055 312.289856,207.633789 310.913605,211.775665 
	C309.576447,215.799759 311.727478,220.982910 312.487244,226.717438 
	C304.690582,222.121552 297.655731,217.184448 289.518005,224.467712 
z"/>
<path fill="#2B3B69" opacity="1.000000" stroke="none" 
	d="
M78.868301,195.756485 
	C78.868301,178.858444 78.868301,161.960403 78.868301,145.020081 
	C76.916138,144.663345 75.242233,144.357468 73.568321,144.051575 
	C73.593773,143.765442 73.619225,143.479294 73.644676,143.193146 
	C86.846321,143.193146 100.047974,143.193146 113.769539,143.193146 
	C113.769539,147.525040 113.769539,151.792938 113.429184,156.497650 
	C112.627319,156.938583 112.165810,156.942688 111.704292,156.946777 
	C108.024361,145.001587 103.761833,142.833099 87.888039,145.043793 
	C87.888039,152.880798 87.888039,160.770691 87.888039,168.652298 
	C96.578407,170.577148 99.892174,169.227646 102.789513,162.444244 
	C103.592209,162.098984 104.001541,162.087509 104.410881,162.076019 
	C104.410881,168.226471 104.410881,174.376907 104.410881,180.527359 
	C98.860153,171.306992 97.387619,170.482742 87.707550,171.966827 
	C87.707550,179.602798 87.707550,187.338943 87.839546,195.970642 
	C87.968689,197.167389 87.965836,197.468567 87.962990,197.769760 
	C85.255287,197.806686 82.547577,197.843613 79.425430,197.487885 
	C78.963425,196.648987 78.915863,196.202744 78.868301,195.756485 
z"/>
<path fill="#2A3B69" opacity="1.000000" stroke="none" 
	d="
M104.355034,197.894409 
	C103.028557,197.673386 102.172386,197.453934 101.316216,197.234482 
	C109.995659,195.727890 111.193199,188.612778 113.844505,182.146484 
	C113.844505,187.168701 113.844505,192.190933 113.844505,197.896011 
	C110.999199,197.896011 107.912270,197.896011 104.355034,197.894409 
z"/>
<path fill="#4D5B81" opacity="1.000000" stroke="none" 
	d="
M88.358994,197.866516 
	C87.965836,197.468567 87.968689,197.167389 87.994659,196.414978 
	C92.317329,195.985352 96.617096,195.992920 100.916100,196.053833 
	C101.278503,196.058975 101.635841,196.421692 101.995537,196.618286 
	C101.974899,197.066605 101.954254,197.514938 101.933617,197.963257 
	C97.540741,197.963257 93.147873,197.963257 88.358994,197.866516 
z"/>
<path fill="#4D5B81" opacity="1.000000" stroke="none" 
	d="
M78.459534,195.785919 
	C78.915863,196.202744 78.963425,196.648987 79.028946,197.431351 
	C77.126556,197.767456 75.206200,197.767456 73.285851,197.767456 
	C73.266014,197.266495 73.246185,196.765533 73.226357,196.264557 
	C74.834488,196.114838 76.442627,195.965103 78.459534,195.785919 
z"/>
<path fill="#384873" opacity="1.000000" stroke="none" 
	d="
M111.648087,157.230042 
	C112.165810,156.942688 112.627319,156.938583 113.319260,156.948868 
	C113.284386,157.542908 113.019081,158.122574 112.753784,158.702225 
	C112.366486,158.305908 111.979179,157.909592 111.648087,157.230042 
z"/>
<path fill="#44537B" opacity="1.000000" stroke="none" 
	d="
M104.538765,161.816650 
	C104.001541,162.087509 103.592209,162.098984 102.977638,162.103149 
	C102.982178,161.542374 103.191948,160.988892 103.401718,160.435425 
	C103.823364,160.809372 104.245003,161.183334 104.538765,161.816650 
z"/>
<path fill="#2A3B69" opacity="1.000000" stroke="none" 
	d="
M292.938171,350.775055 
	C293.053162,350.640350 293.168152,350.505646 293.696289,350.850891 
	C294.193176,351.724487 294.276855,352.118134 294.360504,352.511810 
	C280.555878,361.598358 259.724640,353.502777 257.910339,331.097687 
	C257.244080,322.869720 258.729218,315.143768 263.976440,308.507507 
	C270.704803,299.997955 280.967316,296.970184 291.276398,300.514313 
	C294.302094,301.554535 297.159149,302.970154 299.873444,297.902100 
	C299.873444,305.542725 299.873444,311.545685 299.873444,317.548615 
	C299.518585,317.668335 299.163757,317.788055 298.808899,317.907745 
	C298.284485,316.404602 297.668762,314.926361 297.250977,313.394135 
	C295.101715,305.512207 290.724731,301.413513 284.061371,301.126129 
	C277.516937,300.843872 271.927338,304.663544 269.442627,311.849945 
	C265.961578,321.918182 265.534882,332.133453 270.056641,342.035675 
	C273.994019,350.658173 281.775055,354.348419 290.641022,351.890259 
	C291.911194,351.517517 292.424683,351.146301 292.938171,350.775055 
z"/>
<path fill="#566388" opacity="1.000000" stroke="none" 
	d="
M296.822205,346.905151 
	C297.642151,344.778320 298.462097,342.651520 299.282043,340.524689 
	C299.917389,340.731628 300.552734,340.938538 301.188049,341.145477 
	C300.417999,343.414764 299.647919,345.684052 298.373718,347.876648 
	C297.520416,347.501709 297.171326,347.203430 296.822205,346.905151 
z"/>
<path fill="#566388" opacity="1.000000" stroke="none" 
	d="
M294.644897,352.448853 
	C294.276855,352.118134 294.193176,351.724487 293.942352,350.750732 
	C294.348083,349.507416 294.920959,348.844238 295.753723,348.486572 
	C296.017426,349.567566 296.021240,350.342987 296.025085,351.118439 
	C295.659821,351.540924 295.294586,351.963440 294.644897,352.448853 
z"/>
<path fill="#2A3B69" opacity="1.000000" stroke="none" 
	d="
M296.287598,350.962585 
	C296.021240,350.342987 296.017426,349.567566 296.009399,348.403625 
	C296.077301,347.699951 296.222290,347.422943 296.631195,347.044617 
	C297.171326,347.203430 297.520416,347.501709 298.083038,348.073059 
	C297.714386,349.166351 297.132233,349.986572 296.287598,350.962585 
z"/>
<path fill="#566388" opacity="1.000000" stroke="none" 
	d="
M292.621460,350.798096 
	C292.424683,351.146301 291.911194,351.517517 291.068665,351.860809 
	C291.261322,351.495636 291.783051,351.158356 292.621460,350.798096 
z"/>
<path fill="#283968" opacity="1.000000" stroke="none" 
	d="
M191.003418,216.010025 
	C186.812531,218.088058 183.955704,221.172318 184.226868,226.121353 
	C184.496750,231.046799 187.816528,233.844788 191.940811,235.720688 
	C195.416077,237.301376 199.041824,238.548126 202.578522,239.997482 
	C211.606766,243.697296 214.610611,247.654907 214.249390,255.291565 
	C213.909271,262.481750 209.344452,267.384796 200.220215,269.600037 
	C199.472198,268.891937 199.218063,268.413513 198.963928,267.935120 
	C203.541763,266.673584 206.548477,264.023651 207.000443,259.016174 
	C207.469879,253.815033 204.839432,250.423965 200.467560,248.334824 
	C196.144653,246.269058 191.590286,244.692703 187.226898,242.705338 
	C181.097946,239.913757 176.704910,235.868790 177.143341,228.324844 
	C177.539993,221.500458 180.936737,217.206100 189.247849,214.642197 
	C190.269424,215.262207 190.636429,215.636108 191.003418,216.010025 
z"/>
<path fill="#43527A" opacity="1.000000" stroke="none" 
	d="
M191.452240,216.016129 
	C190.636429,215.636108 190.269424,215.262207 189.607056,214.627014 
	C194.162659,214.512604 199.013000,214.688278 203.864853,214.795227 
	C206.647568,214.856567 209.432755,214.806351 212.477707,214.806351 
	C212.477707,219.906708 212.477707,225.953812 212.477707,232.000900 
	C212.102707,232.278549 211.727707,232.556198 211.352707,232.833832 
	C208.616074,222.508743 204.773590,213.576920 191.452240,216.016129 
z"/>
<path fill="#3D4D77" opacity="1.000000" stroke="none" 
	d="
M189.964417,269.645660 
	C188.237579,269.070709 186.548233,268.251709 184.774933,267.979309 
	C182.252441,267.591766 179.668259,267.605865 176.504578,267.411072 
	C176.504578,262.585083 176.504578,256.486755 176.504578,250.388428 
	C176.877319,250.203171 177.250046,250.017899 177.622787,249.832626 
	C179.835587,256.788696 181.767426,263.957397 189.629639,267.432068 
	C189.928635,268.557983 189.946518,269.101807 189.964417,269.645660 
z"/>
<path fill="#616D8F" opacity="1.000000" stroke="none" 
	d="
M190.274506,269.809631 
	C189.946518,269.101807 189.928635,268.557983 189.929260,267.606232 
	C192.681091,267.393433 195.414413,267.588501 198.555817,267.859344 
	C199.218063,268.413513 199.472198,268.891937 199.851379,269.613220 
	C196.845825,269.895294 193.715195,269.934448 190.274506,269.809631 
z"/>
</svg>