<svg version="1.1" id="Layer_1" xmlns="http://www.w3.org/2000/svg" xmlns:xlink="http://www.w3.org/1999/xlink" x="0px" y="0px"
	 width="100%" viewBox="0 0 100 100" enable-background="new 0 0 100 100" xml:space="preserve">
<path fill="#FE5140" opacity="1.000000" stroke="none" 
	d="
M56.000000,101.000000 
	C37.333336,101.000000 19.166674,101.000000 1.000007,101.000000 
	C1.000005,67.666679 1.000005,34.333351 1.000002,1.000021 
	C34.333317,1.000014 67.666634,1.000014 100.999969,1.000007 
	C100.999977,34.333313 100.999977,67.666626 100.999985,100.999969 
	C86.166664,101.000000 71.333336,101.000000 56.000000,101.000000 
M38.032494,32.072857 
	C38.032494,32.072857 37.919220,31.951269 38.064621,31.232428 
	C37.996006,29.851810 37.927391,28.471193 37.858780,27.090574 
	C37.438271,27.007704 37.017761,26.924831 36.597252,26.841959 
	C36.065830,28.561508 35.534412,30.281057 34.839672,32.946442 
	C35.042721,34.857048 35.245766,36.767654 34.791058,38.309765 
	C34.539761,38.306519 34.288464,38.303268 33.415562,37.888306 
	C27.339607,35.544964 22.439226,36.690804 17.792837,41.541325 
	C21.352411,47.899334 24.689823,49.022213 35.361629,47.350830 
	C36.744034,54.109028 42.323570,60.077034 38.984138,67.768822 
	C38.712734,68.393944 39.049366,69.449020 39.403889,70.153023 
	C41.736866,74.785797 51.750179,78.415543 55.952709,75.532715 
	C58.814976,73.569267 63.166553,69.348160 62.573532,67.539261 
	C59.936600,59.495842 65.628746,53.957924 66.540802,46.655685 
	C72.268898,49.324570 77.124359,49.059963 81.541534,45.298935 
	C85.015282,42.341202 85.096191,40.329121 80.914612,38.936798 
	C76.452271,37.450996 71.591728,37.161129 66.263885,36.238102 
	C66.189316,35.267658 66.004631,32.863968 65.819946,30.460274 
	C64.000000,36.054295 60.473103,36.453293 55.964813,34.934723 
	C55.384514,34.739254 54.650494,35.000149 53.524342,34.839676 
	C52.693790,34.898529 51.863243,34.957382 50.149666,34.880188 
	C47.597538,35.104889 45.038742,35.544846 42.496010,35.466114 
	C41.166553,35.424950 39.865326,34.472206 38.518379,33.469498 
	C38.331997,33.053673 38.145618,32.637844 38.032494,32.072857 
z"/>
<path fill="#FEF9F7" opacity="1.000000" stroke="none" 
	d="
M53.987682,35.049641 
	C54.650494,35.000149 55.384514,34.739254 55.964813,34.934723 
	C60.473103,36.453293 64.000000,36.054295 65.819946,30.460274 
	C66.004631,32.863968 66.189316,35.267658 66.263885,36.238102 
	C71.591728,37.161129 76.452271,37.450996 80.914612,38.936798 
	C85.096191,40.329121 85.015282,42.341202 81.541534,45.298935 
	C77.124359,49.059963 72.268898,49.324570 66.540802,46.655685 
	C65.628746,53.957924 59.936600,59.495842 62.573532,67.539261 
	C63.166553,69.348160 58.814976,73.569267 55.952709,75.532715 
	C51.750179,78.415543 41.736866,74.785797 39.403889,70.153023 
	C39.049366,69.449020 38.712734,68.393944 38.984138,67.768822 
	C42.323570,60.077034 36.744034,54.109028 35.361629,47.350830 
	C24.689823,49.022213 21.352411,47.899334 17.792837,41.541325 
	C22.439226,36.690804 27.339607,35.544964 33.816048,38.229294 
	C34.627296,38.606274 35.038055,38.642269 35.448814,38.678261 
	C35.245766,36.767654 35.042721,34.857048 35.158073,32.387669 
	C36.290722,31.869688 37.104969,31.910479 37.919220,31.951269 
	C37.919220,31.951269 38.032494,32.072857 37.975204,32.383007 
	C38.129055,33.105827 38.340202,33.518494 38.551350,33.931164 
	C39.865326,34.472206 41.166553,35.424950 42.496010,35.466114 
	C45.038742,35.544846 47.597538,35.104889 50.827572,35.070831 
	C52.332878,35.190865 53.160282,35.120255 53.987682,35.049641 
z"/>
<path fill="#FDE3DE" opacity="1.000000" stroke="none" 
	d="
M37.991920,31.591848 
	C37.104969,31.910479 36.290722,31.869688 35.239731,31.914753 
	C35.534412,30.281057 36.065830,28.561508 36.597252,26.841959 
	C37.017761,26.924831 37.438271,27.007704 37.858780,27.090574 
	C37.927391,28.471193 37.996006,29.851810 37.991920,31.591848 
z"/>
<path fill="#FDE3DE" opacity="1.000000" stroke="none" 
	d="
M53.756012,34.944660 
	C53.160282,35.120255 52.332878,35.190865 51.269085,35.138855 
	C51.863243,34.957382 52.693790,34.898529 53.756012,34.944660 
z"/>
<path fill="#FDE3DE" opacity="1.000000" stroke="none" 
	d="
M38.534866,33.700333 
	C38.340202,33.518494 38.129055,33.105827 37.938576,32.457588 
	C38.145618,32.637844 38.331997,33.053673 38.534866,33.700333 
z"/>
<path fill="#FDE3DE" opacity="1.000000" stroke="none" 
	d="
M35.119934,38.494011 
	C35.038055,38.642269 34.627296,38.606274 34.126854,38.435150 
	C34.288464,38.303268 34.539761,38.306519 35.119934,38.494011 
z"/>
</svg>