<svg version="1.1" id="Layer_1" xmlns="http://www.w3.org/2000/svg" xmlns:xlink="http://www.w3.org/1999/xlink" x="0px" y="0px"
	 width="100%" viewBox="0 0 200 200" enable-background="new 0 0 200 200" xml:space="preserve">
<path fill="#0E62FA" opacity="1.000000" stroke="none" 
	d="
M101.000000,201.000000 
	C67.354073,201.000000 34.208145,201.000000 1.031109,201.000000 
	C1.031109,134.395767 1.031109,67.791527 1.031109,1.093641 
	C67.562431,1.093641 134.125046,1.093641 200.843826,1.093641 
	C200.843826,67.666382 200.843826,134.333145 200.843826,201.000000 
	C167.791809,201.000000 134.645905,201.000000 101.000000,201.000000 
M88.497086,85.180405 
	C85.142975,83.967033 82.607811,81.401779 83.656410,78.083984 
	C84.531227,75.316063 87.012177,72.376587 89.578926,71.007217 
	C92.329575,69.539757 96.127594,69.029106 99.265701,69.487938 
	C107.785835,70.733696 116.374100,72.118332 124.611221,74.547173 
	C135.821594,77.852722 140.742859,76.053406 145.189560,65.231590 
	C146.102234,63.010437 146.822952,60.710411 147.722366,58.194389 
	C132.637665,50.355457 116.866966,46.317276 100.124924,45.994408 
	C88.238281,45.765175 76.843193,47.594135 66.827538,54.528038 
	C56.832188,61.447876 53.109455,71.299599 54.055492,83.140549 
	C54.938576,94.193604 60.691841,102.016327 70.878006,105.896767 
	C77.971062,108.598877 85.487404,110.308121 92.927780,111.947441 
	C100.546478,113.626060 108.402565,114.294075 115.938103,116.242371 
	C118.176643,116.821129 121.144638,120.226089 121.148109,122.340385 
	C121.152252,124.856476 118.685532,127.754333 116.594246,129.763062 
	C115.206078,131.096420 112.603691,131.681000 110.536552,131.700027 
	C102.915154,131.770233 95.067032,132.545227 87.723427,131.027115 
	C78.597305,129.140503 69.887184,125.241554 60.536671,122.054703 
	C57.618660,128.563248 54.456848,135.615601 51.210453,142.856598 
	C52.969536,143.869614 54.217125,144.665283 55.529980,145.332565 
	C76.360138,155.919754 98.359459,158.818466 121.036652,153.798569 
	C128.271317,152.197083 135.976868,149.119278 141.576675,144.449997 
	C155.273499,133.029221 154.048218,110.017212 139.534683,99.624649 
	C134.010071,95.668686 127.236946,92.861389 120.614128,91.171638 
	C110.338676,88.549957 99.704697,87.333473 88.497086,85.180405 
z"/>
<path fill="#F9FDFE" opacity="1.000000" stroke="none" 
	d="
M88.859901,85.350838 
	C99.704697,87.333473 110.338676,88.549957 120.614128,91.171638 
	C127.236946,92.861389 134.010071,95.668686 139.534683,99.624649 
	C154.048218,110.017212 155.273499,133.029221 141.576675,144.449997 
	C135.976868,149.119278 128.271317,152.197083 121.036652,153.798569 
	C98.359459,158.818466 76.360138,155.919754 55.529980,145.332565 
	C54.217125,144.665283 52.969536,143.869614 51.210453,142.856598 
	C54.456848,135.615601 57.618660,128.563248 60.536671,122.054703 
	C69.887184,125.241554 78.597305,129.140503 87.723427,131.027115 
	C95.067032,132.545227 102.915154,131.770233 110.536552,131.700027 
	C112.603691,131.681000 115.206078,131.096420 116.594246,129.763062 
	C118.685532,127.754333 121.152252,124.856476 121.148109,122.340385 
	C121.144638,120.226089 118.176643,116.821129 115.938103,116.242371 
	C108.402565,114.294075 100.546478,113.626060 92.927780,111.947441 
	C85.487404,110.308121 77.971062,108.598877 70.878006,105.896767 
	C60.691841,102.016327 54.938576,94.193604 54.055492,83.140549 
	C53.109455,71.299599 56.832188,61.447876 66.827538,54.528038 
	C76.843193,47.594135 88.238281,45.765175 100.124924,45.994408 
	C116.866966,46.317276 132.637665,50.355457 147.722366,58.194389 
	C146.822952,60.710411 146.102234,63.010437 145.189560,65.231590 
	C140.742859,76.053406 135.821594,77.852722 124.611221,74.547173 
	C116.374100,72.118332 107.785835,70.733696 99.265701,69.487938 
	C96.127594,69.029106 92.329575,69.539757 89.578926,71.007217 
	C87.012177,72.376587 84.531227,75.316063 83.656410,78.083984 
	C82.607811,81.401779 85.142975,83.967033 88.859901,85.350838 
z"/>
</svg>